<?xml version="1.0" encoding="UTF-8" standalone="no"?>
<svg
   xmlns:dc="http://purl.org/dc/elements/1.1/"
   xmlns:cc="http://creativecommons.org/ns#"
   xmlns:rdf="http://www.w3.org/1999/02/22-rdf-syntax-ns#"
   xmlns:svg="http://www.w3.org/2000/svg"
   xmlns="http://www.w3.org/2000/svg"
   xmlns:sodipodi="http://sodipodi.sourceforge.net/DTD/sodipodi-0.dtd"
   xmlns:inkscape="http://www.inkscape.org/namespaces/inkscape"
   width="210mm"
   height="297mm"
   viewBox="0 0 210 297"
   version="1.1"
   id="svg8"
   inkscape:version="1.0.2-2 (e86c870879, 2021-01-15)"
   sodipodi:docname="leaf.svg">
  <defs
     id="defs2" />
  <sodipodi:namedview
     id="base"
     pagecolor="#ffffff"
     bordercolor="#666666"
     borderopacity="1.0"
     inkscape:pageopacity="0.0"
     inkscape:pageshadow="2"
     inkscape:zoom="0.7"
     inkscape:cx="-21.308709"
     inkscape:cy="639.24721"
     inkscape:document-units="mm"
     inkscape:current-layer="layer1"
     inkscape:document-rotation="0"
     showgrid="false"
     inkscape:window-width="1920"
     inkscape:window-height="1017"
     inkscape:window-x="-8"
     inkscape:window-y="-8"
     inkscape:window-maximized="1" />
  <metadata
     id="metadata5">
    <rdf:RDF>
      <cc:Work
         rdf:about="">
        <dc:format>image/svg+xml</dc:format>
        <dc:type
           rdf:resource="http://purl.org/dc/dcmitype/StillImage" />
        <dc:title />
      </cc:Work>
    </rdf:RDF>
  </metadata>
  <g
     inkscape:label="Layer 1"
     inkscape:groupmode="layer"
     id="layer1">
    <path
       id="path30"
       style="fill:#cedacd;stroke-width:0.0899733;fill-opacity:1"
       d="m 64.958036,148.79808 c 0.194568,-0.16312 0.837066,0.27017 0,0 z m 1.639646,-0.15772 c 0.128992,-0.24236 0.03898,0.39342 0,0 z m 98.893518,-0.0123 c 0.97347,-0.12964 0.20291,0.13438 0,0 z M 64.728421,148.50565 c 0.25758,-0.17335 0.204045,0.3123 0,0 z m 32.552209,-0.68687 c 0.128992,-0.24236 0.03898,0.39342 0,0 z m -30.328232,-0.27386 c 0.128992,-0.24236 0.03898,0.39342 0,0 z m 94.545432,-0.85961 c 0.0713,-0.5711 0.0713,0.5711 0,0 z m -56.31119,-0.36515 c 0.0714,-0.57112 0.0714,0.57112 0,0 z m 65.69759,0.12932 c 0.12903,-0.24237 0.039,0.39345 0,0 z m 0,-0.45643 c 0.12903,-0.24237 0.039,0.39345 0,0 z m -70.46186,-2.77558 c 0.23147,-0.16431 0.34252,0.29016 0,0 z m 65.08978,-0.001 c -0.40983,-0.29917 0.65876,0.24646 0,0 z m -27.69819,-0.639 c 0.0776,-0.41113 0.0776,0.41113 0,0 z m -23.46961,-2.04829 c -2.51352,-1.18511 -3.57905,0.47326 -6.56176,-1.78518 -1.18074,2.41866 -4.25241,-2.29622 -5.75911,-0.7453 -2.095756,-0.74739 -3.400451,-3.44487 -4.594816,-1.97278 -3.035633,-3.23095 -5.617849,-3.67527 -8.225584,-7.39965 -2.929303,-1.64981 -5.395882,-4.99069 -8.298431,-7.08711 -2.670167,-2.5983 -1.309639,-9.14307 -6.659156,-6.91257 -3.339141,-0.15401 -6.655488,1.7968 -9.644919,1.95703 -0.520651,-1.35421 1.031892,-3.58362 -0.670264,-4.1432 -1.259593,-3.29127 6.546192,-0.96432 8.404302,-1.85092 5.948378,1.18631 3.751169,-6.21534 7.173424,-8.95625 1.927601,-2.870413 3.870092,-6.609325 6.861276,-8.138842 1.847264,-3.336838 3.781908,-5.067197 6.345438,-7.24062 1.656695,-0.421376 3.481468,-3.045514 5.268318,-3.1852 2.084302,-2.698108 3.954722,-2.153446 6.641132,-3.66134 1.54855,1.854385 5.28188,-1.537362 7.13953,0.5399 2.60896,0.262899 6.49659,-0.698799 8.22251,1.23603 3.35809,-1.140442 5.3626,1.987722 8.17837,2.17171 2.19149,0.248762 0.79582,1.384142 3.55881,1.172783 2.40276,0.227949 4.28328,1.574465 6.67858,1.538178 2.72695,-0.556181 3.52612,2.169675 6.36256,1.819609 -0.0945,2.387952 3.77788,2.790869 5.35251,3.73185 -0.76956,2.146893 3.8826,1.503353 3.23094,3.754621 1.91597,1.24782 3.50585,2.354044 4.66432,3.965279 -0.40577,1.430912 2.91388,2.065852 2.77676,3.537102 1.4518,2.13098 5.49309,2.6101 6.10836,5.05171 -1.57879,1.48883 -3.34841,3.82923 -3.31141,5.58135 0.82736,1.69836 -3.07505,2.02209 -2.16075,3.28118 1.15834,1.5252 -4.61207,2.22173 -2.64244,4.00824 -1.49666,1.27279 -4.00484,2.17268 -3.75945,4.01112 -3.90869,0.87556 -4.7404,4.494 -8.88701,5.07963 -0.76314,2.08559 -3.63203,0.73814 -4.13027,2.42707 -2.40838,-0.54372 -2.34498,1.98191 -5.11812,1.20093 -0.47945,2.04598 -3.59669,0.19218 -4.18765,2.29362 -1.50579,0.54134 -3.97784,-0.43053 -3.29719,1.88996 -2.27037,0.83704 -5.07917,-0.45776 -5.58702,1.46355 -3.92682,-0.87405 -4.57778,2.19696 -8.40024,0.31045 -0.32688,0.5411 0.52542,1.51751 -1.07155,1.05606 z m 47.91439,-24.39583 c 0.38983,-0.12878 0.0358,0.17425 0,0 z m -98.498787,-3.0034 c 0.128997,-0.24236 0.03898,0.39345 0,0 z m 106.041817,-1.93222 c -0.26805,-0.42382 0.48897,0.55261 0,0 z m -2.1818,-1.45538 c 0.58552,-0.13443 0.1114,0.15026 0,0 z M 62.695805,84.922458 c 0.128923,-0.242631 0.03903,0.393325 0,0 z m -0.08868,-0.82158 c 0.128997,-0.242363 0.03898,0.39345 0,0 z m 66.302755,-1.19393 c 0.48815,-0.147245 0.0881,0.15942 0,0 z m -32.420362,-1.12626 c 0.0777,-0.411138 0.0777,0.411138 0,0 z m 69.244332,-0.12629 c 0.13324,-0.217686 0.89619,0.09696 0,0 z m -0.81474,-0.11864 c 0.39006,-0.128576 0.0354,0.17415 0,0 z m -62.75413,-1.5808 c 0.0777,-0.41113 0.0777,0.41113 0,0 z m 67.09941,0.12022 c 0.38983,-0.128776 0.0358,0.174247 0,0 z m -99.197939,-0.43972 c 0.09686,-0.433312 0.05193,0.549697 0,0 z m 91.336129,-0.0456 c 0.0777,-0.411125 0.0777,0.411101 0,0 z m -92.439735,-0.15175 c 0.488128,-0.147503 0.08806,0.15975 0,0 z m 31.569745,-1.36929 c 0.48815,-0.147245 0.0881,0.15942 0,0 z m 64.91305,0 c 0.48815,-0.147245 0.0881,0.15942 0,0 z m -95.418647,-1.91702 c 0.488146,-0.147245 0.0881,0.15942 0,0 z m 31.309247,-0.27576 c 0.38983,-0.128776 0.0358,0.174247 0,0 z m 65.1791,0 c 0.38983,-0.128776 0.0358,0.174247 0,0 z m -64.7357,-0.0913 c 0.38966,-0.129125 0.0361,0.174622 0,0 z" />
  </g>
</svg>
